<svg width="32" height="32" viewBox="0 0 32 32" fill="none" xmlns="http://www.w3.org/2000/svg">
<path d="M8.92679 22.9C8.79939 22.8492 8.59735 22.7164 8.4778 22.6048C7.98503 22.145 8.00005 22.3575 8.00005 15.8445V9.78717L8.21129 9.47388C8.58575 8.91854 9.02675 8.74426 10.0619 8.74251L10.9655 8.74094V8.37047V8H11.7532H12.5408V8.37047V8.74094H15.5062H18.4717V8.37047V8H19.2593H20.047V8.37047V8.74094H20.8697C21.3795 8.74094 21.815 8.79211 22.0147 8.87549C22.4321 9.04981 22.8958 9.58143 22.9658 9.96613C22.9962 10.1328 23.0087 12.9189 22.9936 16.1575L22.9661 22.0458L22.6881 22.378C22.1442 23.0281 22.4185 23.0046 15.4349 22.9981C11.4955 22.9944 9.07216 22.9579 8.92679 22.8999V22.9ZM21.4371 17.7712V14.1128H15.5062H9.57542V17.7712V21.4295H15.5062H21.4371V17.7712ZM11.7068 19.253V18.4658H12.4945H13.2822V19.253V20.0403H12.4945H11.7068V19.253ZM14.6722 19.253V18.4658H15.5062H16.3403V19.253V20.0403H15.5062H14.6722V19.253ZM17.6376 19.253V18.4658H18.4717H19.3057V19.253V20.0403H18.4717H17.6376V19.253ZM11.7068 16.2893V15.502H12.4945H13.2822V16.2893V17.0765H12.4945H11.7068V16.2893ZM14.6722 16.2929V15.502H15.51H16.3478L16.3209 16.2661L16.2939 17.0302L15.4831 17.057L14.6722 17.0837V16.2929ZM17.6376 16.2893V15.502H18.4717H19.3057V16.2893V17.0765H18.4717H17.6376V16.2893ZM21.4371 11.4269V10.4081H20.7477H20.0582L20.0295 10.7554L20.0007 11.1027L19.2362 11.1296L18.4717 11.1565V10.7823V10.4081H15.5118H12.552L12.5233 10.7554L12.4945 11.1027H11.7532H11.0118L10.983 10.7554L10.9543 10.4081H10.2649H9.57542V11.4269V12.4457H15.5062H21.4371V11.4269Z" fill="#858585"/>
</svg>
