<svg width="35" height="35" viewBox="0 0 35 35" fill="none" xmlns="http://www.w3.org/2000/svg">
<rect x="3.1875" y="3.1875" width="28.625" height="28.625" rx="3" fill="white" stroke="#F69320" stroke-width="2"/>
<path d="M13.8869 24.8643C13.4709 24.7039 13.1589 24.4197 11.1065 22.3314C8.75619 19.9401 8.751 19.9329 8.75 19.0955C8.74961 18.675 8.77333 18.5615 8.92769 18.2484C9.13898 17.8199 9.6377 17.3187 10.0373 17.1333C10.2549 17.0323 10.4326 17.0025 10.8219 17.0016C11.5935 16.9996 11.6947 17.067 13.2062 18.5837L14.4951 19.8771L18.7427 15.576C23.547 10.7111 23.2799 10.9392 24.1745 10.9392C24.5624 10.9392 24.7072 10.9675 24.9739 11.0958C25.4293 11.3148 25.8063 11.6756 26.0439 12.1201C26.2296 12.4673 26.2467 12.5426 26.2469 13.0095C26.247 13.9065 26.5624 13.5354 20.8279 19.3864C15.1157 25.2146 15.4579 24.9106 14.5819 24.9359C14.2844 24.9445 14.026 24.9179 13.8869 24.8643Z" fill="#F69320"/>
</svg>
