<svg width="25" height="24" viewBox="0 0 25 24" fill="none" xmlns="http://www.w3.org/2000/svg">
<path d="M19.2152 19H5.04997V5H19.2152V19ZM19.2152 3H5.04997C4.51327 3 3.99856 3.21071 3.61907 3.58579C3.23957 3.96086 3.02637 4.46957 3.02637 5V19C3.02637 19.5304 3.23957 20.0391 3.61907 20.4142C3.99856 20.7893 4.51327 21 5.04997 21H19.2152C19.7518 21 20.2666 20.7893 20.6461 20.4142C21.0256 20.0391 21.2388 19.5304 21.2388 19V5C21.2388 4.46957 21.0256 3.96086 20.6461 3.58579C20.2666 3.21071 19.7518 3 19.2152 3ZM14.1157 12.29L11.3332 15.83L9.35011 13.47L6.56766 17H17.6975L14.1157 12.29Z" fill="#333231"/>
</svg>
