<svg width="150" height="44" viewBox="0 0 150 44" fill="none" xmlns="http://www.w3.org/2000/svg">
<g clip-path="url(#clip0_2628_34862)">
<path d="M21.0004 42.4458L10.707 32.0204L15.0332 27.6387C18.3288 30.9765 23.6719 30.9765 26.9675 27.6387L31.2937 32.0204L21.0004 42.4458Z" fill="#F69320"/>
<path d="M32.7848 30.5095C39.2937 23.9172 39.2937 13.2289 32.7848 6.63663C26.276 0.044302 15.7233 0.044302 9.21457 6.63663C2.70582 13.2289 2.70582 23.9172 9.21457 30.5095L12.0489 27.6387C7.1056 22.6319 7.1056 14.5142 12.0489 9.50739C16.9923 4.5006 25.007 4.5006 29.9504 9.50739C34.8937 14.5142 34.8937 22.6319 29.9504 27.6387L32.7848 30.5095Z" fill="#F69320"/>
<path d="M13.9883 18.5731C13.9883 14.6511 17.1274 11.4717 20.9997 11.4717C24.872 11.4717 28.0111 14.6511 28.0111 18.5731C28.0111 22.4951 24.872 25.6745 20.9997 25.6745C17.1274 25.6745 13.9883 22.4951 13.9883 18.5731Z" fill="#F69320"/>
<path d="M54.5129 17.8572H50.4062V15.4H61.5896V17.8572H57.4829V28.4308H54.5129V17.8572ZM66.6766 28.5797C65.6379 28.5797 64.7029 28.3625 63.8716 27.9282C63.0529 27.4814 62.4113 26.8671 61.9466 26.0852C61.4823 25.3034 61.2499 24.4161 61.2499 23.4232C61.2499 22.4304 61.4823 21.5431 61.9466 20.7612C62.4113 19.9794 63.0529 19.3713 63.8716 18.9369C64.7029 18.4902 65.6379 18.2668 66.6766 18.2668C67.7156 18.2668 68.6446 18.4902 69.4633 18.9369C70.2823 19.3713 70.9239 19.9794 71.3883 20.7612C71.8529 21.5431 72.0849 22.4304 72.0849 23.4232C72.0849 24.4161 71.8529 25.3034 71.3883 26.0852C70.9239 26.8671 70.2823 27.4814 69.4633 27.9282C68.6446 28.3625 67.7156 28.5797 66.6766 28.5797ZM66.6766 26.1969C67.4099 26.1969 68.0089 25.9487 68.4733 25.4523C68.9499 24.9435 69.1882 24.2671 69.1882 23.4232C69.1882 22.5794 68.9499 21.9092 68.4733 21.4128C68.0089 20.904 67.4099 20.6495 66.6766 20.6495C65.9433 20.6495 65.3382 20.904 64.8616 21.4128C64.3849 21.9092 64.1466 22.5794 64.1466 23.4232C64.1466 24.2671 64.3849 24.9435 64.8616 25.4523C65.3382 25.9487 65.9433 26.1969 66.6766 26.1969ZM78.6899 28.5797C77.6513 28.5797 76.7163 28.3625 75.8849 27.9282C75.0663 27.4814 74.4246 26.8671 73.9599 26.0852C73.4956 25.3034 73.2633 24.4161 73.2633 23.4232C73.2633 22.4304 73.4956 21.5431 73.9599 20.7612C74.4246 19.9794 75.0663 19.3713 75.8849 18.9369C76.7163 18.4902 77.6513 18.2668 78.6899 18.2668C79.7289 18.2668 80.6579 18.4902 81.4766 18.9369C82.2956 19.3713 82.9372 19.9794 83.4016 20.7612C83.8662 21.5431 84.0983 22.4304 84.0983 23.4232C84.0983 24.4161 83.8662 25.3034 83.4016 26.0852C82.9372 26.8671 82.2956 27.4814 81.4766 27.9282C80.6579 28.3625 79.7289 28.5797 78.6899 28.5797ZM78.6899 26.1969C79.4233 26.1969 80.0222 25.9487 80.4866 25.4523C80.9632 24.9435 81.2016 24.2671 81.2016 23.4232C81.2016 22.5794 80.9632 21.9092 80.4866 21.4128C80.0222 20.904 79.4233 20.6495 78.6899 20.6495C77.9566 20.6495 77.3516 20.904 76.8749 21.4128C76.3983 21.9092 76.1599 22.5794 76.1599 23.4232C76.1599 24.2671 76.3983 24.9435 76.8749 25.4523C77.3516 25.9487 77.9566 26.1969 78.6899 26.1969ZM86.0099 14.6182H88.8699V28.4308H86.0099V14.6182ZM95.9426 28.6542C94.9283 28.6542 93.9443 28.5177 92.9909 28.2446C92.0499 27.9592 91.2922 27.5931 90.7176 27.1463L91.7259 24.8752C92.2759 25.2848 92.9299 25.6137 93.6876 25.8619C94.4456 26.1101 95.2033 26.2342 95.9609 26.2342C96.8043 26.2342 97.4276 26.1101 97.8309 25.8619C98.2342 25.6012 98.4359 25.26 98.4359 24.838C98.4359 24.5277 98.3139 24.2734 98.0693 24.0748C97.8373 23.8638 97.5316 23.6963 97.1526 23.5722C96.7859 23.448 96.2849 23.3115 95.6493 23.1626C94.6716 22.9268 93.8709 22.691 93.2476 22.4552C92.6242 22.2194 92.0866 21.8409 91.6342 21.3197C91.1942 20.7985 90.9743 20.1035 90.9743 19.2348C90.9743 18.4777 91.1759 17.7952 91.5793 17.1871C91.9826 16.5666 92.5876 16.0764 93.3942 15.7165C94.2132 15.3566 95.2092 15.1766 96.3826 15.1766C97.2016 15.1766 98.0023 15.2759 98.7843 15.4745C99.5666 15.673 100.251 15.9585 100.838 16.3308L99.9209 18.6205C98.7356 17.9379 97.5499 17.5966 96.3643 17.5966C95.5332 17.5966 94.9159 17.7331 94.5126 18.0062C94.1216 18.2792 93.9259 18.6391 93.9259 19.0859C93.9259 19.5326 94.1522 19.8677 94.6042 20.0911C95.0689 20.3021 95.7716 20.513 96.7126 20.724C97.6906 20.9598 98.4909 21.1956 99.1143 21.4314C99.7376 21.6672 100.269 22.0395 100.709 22.5483C101.162 23.0571 101.388 23.7459 101.388 24.6146C101.388 25.3592 101.18 26.0418 100.764 26.6623C100.361 27.2704 99.7499 27.7544 98.9309 28.1143C98.1123 28.4742 97.1159 28.6542 95.9426 28.6542ZM112.877 23.4605C112.877 23.4977 112.859 23.7583 112.822 24.2423H105.361C105.495 24.8628 105.813 25.353 106.314 25.7129C106.815 26.0728 107.438 26.2528 108.184 26.2528C108.697 26.2528 109.149 26.1783 109.541 26.0294C109.944 25.8681 110.317 25.6199 110.659 25.2848L112.181 26.9602C111.252 28.0399 109.895 28.5797 108.111 28.5797C106.998 28.5797 106.014 28.3625 105.159 27.9282C104.303 27.4814 103.643 26.8671 103.179 26.0852C102.714 25.3034 102.482 24.4161 102.482 23.4232C102.482 22.4428 102.708 21.5617 103.161 20.7799C103.625 19.9856 104.254 19.3713 105.049 18.9369C105.856 18.4902 106.754 18.2668 107.744 18.2668C108.709 18.2668 109.583 18.4777 110.366 18.8997C111.148 19.3217 111.759 19.9297 112.199 20.724C112.651 21.5059 112.877 22.418 112.877 23.4605ZM107.762 20.4634C107.114 20.4634 106.571 20.6495 106.131 21.0219C105.691 21.3942 105.422 21.903 105.324 22.5483H110.182C110.084 21.9154 109.816 21.4128 109.376 21.0405C108.936 20.6557 108.398 20.4634 107.762 20.4634ZM120.776 18.2668C121.998 18.2668 122.982 18.6391 123.728 19.3837C124.486 20.1283 124.865 21.2328 124.865 22.6972V28.4308H122.005V23.144C122.005 22.3497 121.833 21.7603 121.491 21.3755C121.149 20.9784 120.654 20.7799 120.006 20.7799C119.285 20.7799 118.711 21.0094 118.283 21.4686C117.855 21.9154 117.641 22.5856 117.641 23.4791V28.4308H114.781V18.4157H117.513V19.5885C117.892 19.1665 118.362 18.8439 118.925 18.6205C119.487 18.3847 120.104 18.2668 120.776 18.2668ZM130.775 28.5797C129.956 28.5797 129.156 28.4804 128.374 28.2819C127.591 28.0709 126.968 27.8103 126.504 27.5L127.457 25.4151C127.897 25.7005 128.429 25.9363 129.052 26.1225C129.675 26.2962 130.286 26.3831 130.885 26.3831C132.095 26.3831 132.7 26.079 132.7 25.4709C132.7 25.1855 132.535 24.9807 132.205 24.8566C131.875 24.7325 131.368 24.627 130.684 24.5402C129.877 24.416 129.211 24.2734 128.685 24.112C128.16 23.9507 127.701 23.6652 127.31 23.2557C126.931 22.8462 126.742 22.2629 126.742 21.5059C126.742 20.8729 126.919 20.3145 127.274 19.8305C127.64 19.3341 128.166 18.9494 128.85 18.6763C129.547 18.4033 130.366 18.2668 131.307 18.2668C132.004 18.2668 132.694 18.3474 133.379 18.5088C134.075 18.6577 134.65 18.8687 135.102 19.1417L134.149 21.208C133.281 20.7116 132.334 20.4634 131.307 20.4634C130.696 20.4634 130.238 20.5503 129.932 20.724C129.626 20.8977 129.474 21.1211 129.474 21.3942C129.474 21.7044 129.639 21.9216 129.969 22.0457C130.299 22.1698 130.824 22.2877 131.545 22.3994C132.352 22.5359 133.012 22.6848 133.525 22.8462C134.039 22.9951 134.485 23.2743 134.864 23.6839C135.243 24.0934 135.432 24.6643 135.432 25.3965C135.432 26.017 135.249 26.5692 134.882 27.0532C134.515 27.5372 133.978 27.9157 133.269 28.1888C132.572 28.4494 131.741 28.5797 130.775 28.5797ZM146.858 23.4605C146.858 23.4977 146.84 23.7583 146.803 24.2423H139.342C139.476 24.8628 139.794 25.353 140.295 25.7129C140.796 26.0728 141.419 26.2528 142.165 26.2528C142.678 26.2528 143.131 26.1783 143.522 26.0294C143.925 25.8681 144.298 25.6199 144.64 25.2848L146.162 26.9602C145.233 28.0399 143.876 28.5797 142.092 28.5797C140.979 28.5797 139.996 28.3625 139.14 27.9282C138.284 27.4814 137.624 26.8671 137.16 26.0852C136.696 25.3034 136.463 24.4161 136.463 23.4232C136.463 22.4428 136.689 21.5617 137.142 20.7799C137.606 19.9856 138.236 19.3713 139.03 18.9369C139.837 18.4902 140.735 18.2668 141.725 18.2668C142.691 18.2668 143.564 18.4777 144.347 18.8997C145.129 19.3217 145.74 19.9297 146.18 20.724C146.632 21.5059 146.858 22.418 146.858 23.4605ZM141.743 20.4634C141.096 20.4634 140.552 20.6495 140.112 21.0219C139.672 21.3942 139.403 21.903 139.305 22.5483H144.163C144.066 21.9154 143.797 21.4128 143.357 21.0405C142.917 20.6557 142.379 20.4634 141.743 20.4634Z" fill="#333231"/>
</g>
<defs>
<clipPath id="clip0_2628_34862">
<rect width="150" height="44" fill="white"/>
</clipPath>
</defs>
</svg>
