<svg width="151" height="44" viewBox="0 0 151 44" fill="none" xmlns="http://www.w3.org/2000/svg">
<g clip-path="url(#clip0_2628_34781)">
<path d="M21.5004 42.4458L11.207 32.0204L15.5332 27.6387C18.8288 30.9765 24.1719 30.9765 27.4675 27.6387L31.7937 32.0204L21.5004 42.4458Z" fill="#F69320"/>
<path d="M33.2848 30.5095C39.7937 23.9172 39.7937 13.2289 33.2848 6.63663C26.776 0.044302 16.2233 0.044302 9.71457 6.63663C3.20582 13.2289 3.20582 23.9172 9.71457 30.5095L12.5489 27.6387C7.6056 22.6319 7.6056 14.5142 12.5489 9.50739C17.4923 4.5006 25.507 4.5006 30.4504 9.50739C35.3937 14.5142 35.3937 22.6319 30.4504 27.6387L33.2848 30.5095Z" fill="#F69320"/>
<path d="M14.4883 18.5731C14.4883 14.6511 17.6274 11.4717 21.4997 11.4717C25.372 11.4717 28.5111 14.6511 28.5111 18.5731C28.5111 22.4951 25.372 25.6745 21.4997 25.6745C17.6274 25.6745 14.4883 22.4951 14.4883 18.5731Z" fill="#F69320"/>
<path d="M55.0129 17.8572H50.9062V15.4H62.0896V17.8572H57.9829V28.4308H55.0129V17.8572ZM67.1766 28.5797C66.1379 28.5797 65.2029 28.3625 64.3716 27.9282C63.5529 27.4814 62.9113 26.8671 62.4466 26.0852C61.9823 25.3034 61.7499 24.4161 61.7499 23.4232C61.7499 22.4304 61.9823 21.5431 62.4466 20.7612C62.9113 19.9794 63.5529 19.3713 64.3716 18.9369C65.2029 18.4902 66.1379 18.2668 67.1766 18.2668C68.2156 18.2668 69.1446 18.4902 69.9633 18.9369C70.7823 19.3713 71.4239 19.9794 71.8883 20.7612C72.3529 21.5431 72.5849 22.4304 72.5849 23.4232C72.5849 24.4161 72.3529 25.3034 71.8883 26.0852C71.4239 26.8671 70.7823 27.4814 69.9633 27.9282C69.1446 28.3625 68.2156 28.5797 67.1766 28.5797ZM67.1766 26.1969C67.9099 26.1969 68.5089 25.9487 68.9733 25.4523C69.4499 24.9435 69.6882 24.2671 69.6882 23.4232C69.6882 22.5794 69.4499 21.9092 68.9733 21.4128C68.5089 20.904 67.9099 20.6495 67.1766 20.6495C66.4433 20.6495 65.8382 20.904 65.3616 21.4128C64.8849 21.9092 64.6466 22.5794 64.6466 23.4232C64.6466 24.2671 64.8849 24.9435 65.3616 25.4523C65.8382 25.9487 66.4433 26.1969 67.1766 26.1969ZM79.1899 28.5797C78.1513 28.5797 77.2163 28.3625 76.3849 27.9282C75.5663 27.4814 74.9246 26.8671 74.4599 26.0852C73.9956 25.3034 73.7633 24.4161 73.7633 23.4232C73.7633 22.4304 73.9956 21.5431 74.4599 20.7612C74.9246 19.9794 75.5663 19.3713 76.3849 18.9369C77.2163 18.4902 78.1513 18.2668 79.1899 18.2668C80.2289 18.2668 81.1579 18.4902 81.9766 18.9369C82.7956 19.3713 83.4372 19.9794 83.9016 20.7612C84.3662 21.5431 84.5983 22.4304 84.5983 23.4232C84.5983 24.4161 84.3662 25.3034 83.9016 26.0852C83.4372 26.8671 82.7956 27.4814 81.9766 27.9282C81.1579 28.3625 80.2289 28.5797 79.1899 28.5797ZM79.1899 26.1969C79.9233 26.1969 80.5222 25.9487 80.9866 25.4523C81.4632 24.9435 81.7016 24.2671 81.7016 23.4232C81.7016 22.5794 81.4632 21.9092 80.9866 21.4128C80.5222 20.904 79.9233 20.6495 79.1899 20.6495C78.4566 20.6495 77.8516 20.904 77.3749 21.4128C76.8983 21.9092 76.6599 22.5794 76.6599 23.4232C76.6599 24.2671 76.8983 24.9435 77.3749 25.4523C77.8516 25.9487 78.4566 26.1969 79.1899 26.1969ZM86.5099 14.6182H89.3699V28.4308H86.5099V14.6182ZM96.4426 28.6542C95.4283 28.6542 94.4443 28.5177 93.4909 28.2446C92.5499 27.9592 91.7922 27.5931 91.2176 27.1463L92.2259 24.8752C92.7759 25.2848 93.4299 25.6137 94.1876 25.8619C94.9456 26.1101 95.7033 26.2342 96.4609 26.2342C97.3043 26.2342 97.9276 26.1101 98.3309 25.8619C98.7342 25.6012 98.9359 25.26 98.9359 24.838C98.9359 24.5277 98.8139 24.2734 98.5693 24.0748C98.3373 23.8638 98.0316 23.6963 97.6526 23.5722C97.2859 23.448 96.7849 23.3115 96.1493 23.1626C95.1716 22.9268 94.3709 22.691 93.7476 22.4552C93.1242 22.2194 92.5866 21.8409 92.1342 21.3197C91.6942 20.7985 91.4743 20.1035 91.4743 19.2348C91.4743 18.4777 91.6759 17.7952 92.0793 17.1871C92.4826 16.5666 93.0876 16.0764 93.8942 15.7165C94.7132 15.3566 95.7092 15.1766 96.8826 15.1766C97.7016 15.1766 98.5023 15.2759 99.2843 15.4745C100.067 15.673 100.751 15.9585 101.338 16.3308L100.421 18.6205C99.2356 17.9379 98.0499 17.5966 96.8643 17.5966C96.0332 17.5966 95.4159 17.7331 95.0126 18.0062C94.6216 18.2792 94.4259 18.6391 94.4259 19.0859C94.4259 19.5326 94.6522 19.8677 95.1042 20.0911C95.5689 20.3021 96.2716 20.513 97.2126 20.724C98.1906 20.9598 98.9909 21.1956 99.6143 21.4314C100.238 21.6672 100.769 22.0395 101.209 22.5483C101.662 23.0571 101.888 23.7459 101.888 24.6146C101.888 25.3592 101.68 26.0418 101.264 26.6623C100.861 27.2704 100.25 27.7544 99.4309 28.1143C98.6123 28.4742 97.6159 28.6542 96.4426 28.6542ZM113.377 23.4605C113.377 23.4977 113.359 23.7583 113.322 24.2423H105.861C105.995 24.8628 106.313 25.353 106.814 25.7129C107.315 26.0728 107.938 26.2528 108.684 26.2528C109.197 26.2528 109.649 26.1783 110.041 26.0294C110.444 25.8681 110.817 25.6199 111.159 25.2848L112.681 26.9602C111.752 28.0399 110.395 28.5797 108.611 28.5797C107.498 28.5797 106.514 28.3625 105.659 27.9282C104.803 27.4814 104.143 26.8671 103.679 26.0852C103.214 25.3034 102.982 24.4161 102.982 23.4232C102.982 22.4428 103.208 21.5617 103.661 20.7799C104.125 19.9856 104.754 19.3713 105.549 18.9369C106.356 18.4902 107.254 18.2668 108.244 18.2668C109.209 18.2668 110.083 18.4777 110.866 18.8997C111.648 19.3217 112.259 19.9297 112.699 20.724C113.151 21.5059 113.377 22.418 113.377 23.4605ZM108.262 20.4634C107.614 20.4634 107.071 20.6495 106.631 21.0219C106.191 21.3942 105.922 21.903 105.824 22.5483H110.682C110.584 21.9154 110.316 21.4128 109.876 21.0405C109.436 20.6557 108.898 20.4634 108.262 20.4634ZM121.276 18.2668C122.498 18.2668 123.482 18.6391 124.228 19.3837C124.986 20.1283 125.365 21.2328 125.365 22.6972V28.4308H122.505V23.144C122.505 22.3497 122.333 21.7603 121.991 21.3755C121.649 20.9784 121.154 20.7799 120.506 20.7799C119.785 20.7799 119.211 21.0094 118.783 21.4686C118.355 21.9154 118.141 22.5856 118.141 23.4791V28.4308H115.281V18.4157H118.013V19.5885C118.392 19.1665 118.862 18.8439 119.425 18.6205C119.987 18.3847 120.604 18.2668 121.276 18.2668ZM131.275 28.5797C130.456 28.5797 129.656 28.4804 128.874 28.2819C128.091 28.0709 127.468 27.8103 127.004 27.5L127.957 25.4151C128.397 25.7005 128.929 25.9363 129.552 26.1225C130.175 26.2962 130.786 26.3831 131.385 26.3831C132.595 26.3831 133.2 26.079 133.2 25.4709C133.2 25.1855 133.035 24.9807 132.705 24.8566C132.375 24.7325 131.868 24.627 131.184 24.5402C130.377 24.416 129.711 24.2734 129.185 24.112C128.66 23.9507 128.201 23.6652 127.81 23.2557C127.431 22.8462 127.242 22.2629 127.242 21.5059C127.242 20.8729 127.419 20.3145 127.774 19.8305C128.14 19.3341 128.666 18.9494 129.35 18.6763C130.047 18.4033 130.866 18.2668 131.807 18.2668C132.504 18.2668 133.194 18.3474 133.879 18.5088C134.575 18.6577 135.15 18.8687 135.602 19.1417L134.649 21.208C133.781 20.7116 132.834 20.4634 131.807 20.4634C131.196 20.4634 130.738 20.5503 130.432 20.724C130.126 20.8977 129.974 21.1211 129.974 21.3942C129.974 21.7044 130.139 21.9216 130.469 22.0457C130.799 22.1698 131.324 22.2877 132.045 22.3994C132.852 22.5359 133.512 22.6848 134.025 22.8462C134.539 22.9951 134.985 23.2743 135.364 23.6839C135.743 24.0934 135.932 24.6643 135.932 25.3965C135.932 26.017 135.749 26.5692 135.382 27.0532C135.015 27.5372 134.478 27.9157 133.769 28.1888C133.072 28.4494 132.241 28.5797 131.275 28.5797ZM147.358 23.4605C147.358 23.4977 147.34 23.7583 147.303 24.2423H139.842C139.976 24.8628 140.294 25.353 140.795 25.7129C141.296 26.0728 141.919 26.2528 142.665 26.2528C143.178 26.2528 143.631 26.1783 144.022 26.0294C144.425 25.8681 144.798 25.6199 145.14 25.2848L146.662 26.9602C145.733 28.0399 144.376 28.5797 142.592 28.5797C141.479 28.5797 140.496 28.3625 139.64 27.9282C138.784 27.4814 138.124 26.8671 137.66 26.0852C137.196 25.3034 136.963 24.4161 136.963 23.4232C136.963 22.4428 137.189 21.5617 137.642 20.7799C138.106 19.9856 138.736 19.3713 139.53 18.9369C140.337 18.4902 141.235 18.2668 142.225 18.2668C143.191 18.2668 144.064 18.4777 144.847 18.8997C145.629 19.3217 146.24 19.9297 146.68 20.724C147.132 21.5059 147.358 22.418 147.358 23.4605ZM142.243 20.4634C141.596 20.4634 141.052 20.6495 140.612 21.0219C140.172 21.3942 139.903 21.903 139.805 22.5483H144.663C144.566 21.9154 144.297 21.4128 143.857 21.0405C143.417 20.6557 142.879 20.4634 142.243 20.4634Z" fill="#333231"/>
</g>
<defs>
<clipPath id="clip0_2628_34781">
<rect width="150" height="44" fill="white" transform="translate(0.5)"/>
</clipPath>
</defs>
</svg>
