<?xml version="1.0" encoding="UTF-8"?>
<svg width="257px" height="97px" viewBox="0 0 257 97" version="1.1" xmlns="http://www.w3.org/2000/svg" xmlns:xlink="http://www.w3.org/1999/xlink">
    <!-- Generator: Sketch 64 (93537) - https://sketch.com -->
    <title>logo-cf</title>
    <desc>Created with Sketch.</desc>
    <g id="Mobile-Web-Portal" stroke="none" stroke-width="1" fill="none" fill-rule="evenodd">
        <g id="logo-cf" transform="translate(-0.592233, 0.229193)">
            <rect id="safespace" fill="#FFFFFF" x="0.893529061" y="0.732979029" width="256" height="96"></rect>
            <g id="Group-3" transform="translate(0.893529, 68.732979)" fill-rule="nonzero">
                <path d="M8.930335,8.65234792 C9.88012895,8.65234792 10.7546212,8.75080069 11.5538381,8.94770919 C12.3530549,9.1446177 13.0074763,9.3936453 13.5171218,9.69479947 C14.1657616,10.0654508 14.6753995,10.563506 15.0460508,11.18898 C15.4167021,11.8144541 15.602025,12.5209975 15.602025,13.3086315 C15.602025,14.2815912 15.2892926,15.0865874 14.6638186,15.7236443 C14.0383445,16.3607012 13.2391396,16.6792249 12.26618,16.6792249 C11.2700546,16.6792249 10.4882238,16.3954493 9.92066398,15.8278895 C9.35310417,15.2603297 9.06932854,14.5016642 9.06932854,13.5518702 C9.06932854,12.7179048 9.3415215,11.9824047 9.88591559,11.3453478 C10.4303097,10.7082909 11.1078964,10.2855231 11.9186961,10.0770317 C11.5712105,9.79904323 11.1079034,9.66005109 10.5287607,9.66005109 C9.04615554,9.66005109 8.00371441,10.4534646 7.40140605,12.0403155 C6.79909769,13.6271663 6.49794803,15.5093517 6.49794803,17.6869281 C6.49794803,19.9108358 6.91492448,21.4976629 7.7488899,22.4474568 C8.58285532,23.3972508 9.61371378,23.8721406 10.8414962,23.8721406 C12.5325927,23.8721406 13.9340969,23.0961011 15.0460508,21.5439988 L15.6367733,21.7524891 C15.1271278,23.3740886 14.2642182,24.7640101 13.0480186,25.9222954 C11.8318191,27.0805807 10.2739487,27.6597146 8.37436083,27.6597146 C5.84929889,27.6597146 3.82233002,26.9068404 2.29339342,25.4010696 C0.76445683,23.8952987 1.49009291e-13,21.4861014 1.49009291e-13,18.1734055 C1.49009291e-13,14.9997037 0.816578886,12.6194632 2.44976116,11.0326123 C4.08294342,9.44576144 6.2431131,8.65234792 8.930335,8.65234792 Z M29.8488629,8.65234792 C30.9839826,8.65234792 31.8005614,8.99982829 32.298624,9.69479947 C32.7966867,10.3897707 33.0457143,11.2121409 33.0457143,12.1619348 C33.0457143,13.2043916 32.750356,14.0325532 32.1596305,14.6464444 C31.5689051,15.2603356 30.7986569,15.5672766 29.8488629,15.5672766 C28.8527374,15.5672766 28.0882807,15.3414143 27.5554695,14.8896831 C27.0226582,14.4379518 26.7562566,13.8298611 26.7562566,13.0653928 C26.7562566,11.6986162 27.3469734,10.621427 28.5284243,9.83379301 C28.1114415,9.83379301 27.7407959,9.91487176 27.4164759,10.0770317 C26.8373333,10.3318545 26.3508607,10.7430396 25.9570437,11.3105994 C25.5632268,11.8781592 25.3663212,12.4978325 25.3663212,13.169638 L25.3663212,23.5941536 C25.3663212,24.6829418 25.5921835,25.4300246 26.0439147,25.8354244 C26.4956459,26.2408242 27.265894,26.4435211 28.3546823,26.4435211 L28.3546823,27.1732372 C28.0535282,27.1732372 27.7987091,27.1616544 27.5902179,27.1384888 C25.1578188,27.0689918 23.5362436,27.0342437 22.7254439,27.0342437 C22.007307,27.0342437 20.3973146,27.0689918 17.8954184,27.1384888 C17.7100927,27.1616544 17.4668565,27.1732372 17.1657023,27.1732372 L17.1657023,26.4435211 C17.8838392,26.4435211 18.3876857,26.2639895 18.677257,25.9049212 C18.9668284,25.5458528 19.1116119,24.8914314 19.1116119,23.9416374 L19.1116119,12.9263993 C19.1116119,11.8607768 18.9668284,11.0847373 18.677257,10.5982575 C18.3876857,10.1117777 17.8838392,9.8685414 17.1657023,9.8685414 L17.1657023,9.13882531 C17.9070049,9.20832242 18.625131,9.24307046 19.3201022,9.24307046 C21.7293356,9.24307046 23.7447218,9.08091295 25.3663212,8.75659307 L25.3663212,11.2584768 C26.246618,9.52104886 27.7407836,8.65234792 29.8488629,8.65234792 Z M38.7444495,-6.00176313e-14 C39.9490662,-6.00176313e-14 40.8814718,0.254818943 41.5416945,0.764464475 C42.2019172,1.27411001 42.5320235,2.01540148 42.5320235,2.98836113 C42.5320235,3.96132079 42.2019172,4.70261224 41.5416945,5.21225778 C40.8814718,5.72190332 39.9490662,5.97672226 38.7444495,5.97672226 C37.5166672,5.97672226 36.57847,5.72190332 35.9298303,5.21225778 C35.2811906,4.70261224 34.9568755,3.96132079 34.9568755,2.98836113 C34.9568755,2.01540148 35.2811906,1.27411001 35.9298303,0.764464475 C36.57847,0.254818943 37.5166672,-6.00176313e-14 38.7444495,-6.00176313e-14 Z M42.0802945,23.9416374 C42.0802945,24.8914314 42.225078,25.5458528 42.5146493,25.9049212 C42.8042206,26.2639895 43.3080671,26.4435211 44.0262041,26.4435211 L44.0262041,27.1732372 C41.5243078,27.0805744 39.8795673,27.0342437 39.0919334,27.0342437 C38.3042994,27.0342437 36.5668975,27.0805744 33.8796756,27.1732372 L33.8796756,26.4435211 C34.5978125,26.4435211 35.101659,26.2639895 35.3912303,25.9049212 C35.6808017,25.5458528 35.8255851,24.8914314 35.8255851,23.9416374 L35.8255851,12.9263993 C35.8255851,11.8607768 35.6808017,11.0847373 35.3912303,10.5982575 C35.101659,10.1117777 34.5978125,9.8685414 33.8796756,9.8685414 L33.8796756,9.13882531 C34.6209781,9.20832242 35.3391044,9.24307046 36.0340755,9.24307046 C38.4433089,9.24307046 40.458695,9.08091295 42.0802945,8.75659307 L42.0802945,23.9416374 Z M52.6438036,8.65234792 C53.5472662,8.65234792 54.3985929,8.75080069 55.1978099,8.94770919 C55.9970269,9.1446177 56.6051173,9.35889726 57.0221001,9.59055432 C57.2769228,9.72954856 57.4854112,9.79904463 57.6475711,9.79904463 C58.1340509,9.79904463 58.4236178,9.4283989 58.5162807,8.6870963 L59.2112484,8.6870963 C59.1185855,9.89171302 59.0722549,11.9765953 59.0722549,14.9418056 L58.3772871,14.9418056 C58.1919615,13.412869 57.757611,12.1214003 57.0742227,11.0673607 C56.3908344,10.0133211 55.4005153,9.48630916 54.1032358,9.48630916 C53.5240931,9.48630916 53.0376206,9.66004935 52.6438036,10.0075349 C52.2499866,10.3550205 52.053081,10.8299104 52.053081,11.4322187 C52.053081,12.196687 52.3078999,12.8742738 52.8175455,13.4649993 C53.3271912,14.0557248 54.1263958,14.7796422 55.2151841,15.6367733 C55.2615155,15.6599391 55.5974132,15.9263407 56.2228873,16.4359862 C57.5201668,17.5016087 58.4699466,18.445597 59.0722549,19.2679796 C59.6745631,20.0903621 59.9757129,21.1038466 59.9757129,22.3084633 C59.9757129,23.3277544 59.6629805,24.2485774 59.0375065,25.0709599 C58.4120324,25.8933425 57.5607054,26.5303899 56.4835002,26.9821211 C55.4062949,27.4338523 54.2306528,27.6597146 52.9565391,27.6597146 C51.4970996,27.6597146 50.3040836,27.3701476 49.3774554,26.791005 C48.9836384,26.5825137 48.6593233,26.4319388 48.4045006,26.339276 C48.1496779,26.2466131 47.8948588,26.2002824 47.6400361,26.2002824 C47.1998877,26.2002824 46.8755726,26.6056762 46.6670813,27.4164759 L45.9721136,27.4164759 C46.0647765,26.0960308 46.1111072,23.7794948 46.1111072,20.4667989 L46.8060749,20.4667989 C47.0145661,22.3663868 47.5242041,23.8953004 48.3350038,25.0535857 C49.1458036,26.211871 50.1650794,26.791005 51.3928617,26.791005 C51.9720044,26.791005 52.4526855,26.6288476 52.8349197,26.3045276 C53.2171539,25.9802077 53.4082681,25.5053179 53.4082681,24.8798438 C53.4082681,24.2312041 53.2750674,23.6520701 53.0086616,23.1424245 C52.7422559,22.632779 52.417941,22.1752632 52.0357068,21.7698633 C51.6534727,21.3644635 51.0337994,20.7795382 50.1766682,20.0150699 C49.2037086,19.1116074 48.4624172,18.3934812 47.9527716,17.86067 C47.4431259,17.3278588 47.0087755,16.7081854 46.6497071,16.0016314 C46.2906388,15.2950774 46.1111072,14.5132465 46.1111072,13.6561154 C46.1111072,12.65999 46.4122569,11.7797064 47.0145652,11.0152381 C47.6168734,10.2507698 48.4160783,9.66584451 49.4122038,9.26044466 C50.4083292,8.8550448 51.4855183,8.65234792 52.6438036,8.65234792 Z M69.7747575,9.13882531 L73.1800992,9.13882531 L73.1800992,9.83379301 L69.7747575,9.83379301 L69.7747575,24.2543729 C69.7747575,24.7176871 69.8558363,25.042002 70.0179962,25.2273277 C70.180156,25.4126533 70.4465577,25.5053147 70.8172091,25.5053147 C71.0951976,25.5053147 71.4079299,25.4242359 71.7554155,25.262076 C72.102901,25.0999162 72.4156333,24.8450971 72.6936219,24.4976116 L73.2148476,24.9145922 C72.1492252,26.744683 70.5044847,27.6597146 68.2805769,27.6597146 C66.6821432,27.6597146 65.4891272,27.2659035 64.7014933,26.4782695 C64.2150134,25.9917897 63.8964897,25.3894904 63.7459127,24.6713535 C63.5953356,23.9532166 63.5200482,22.9455235 63.5200482,21.648244 L63.5200482,9.83379301 L60.8791709,9.83379301 L60.8791709,9.13882531 L63.5200482,9.13882531 L63.5200482,5.03851585 C64.7709963,5.03851585 65.9003075,4.91689771 66.9080157,4.67365781 C67.915724,4.43041791 68.8712949,4.04239813 69.7747575,3.50958691 L69.7747575,9.13882531 Z M78.7745893,-6.00176313e-14 C79.979206,-6.00176313e-14 80.9116116,0.254818943 81.5718343,0.764464475 C82.232057,1.27411001 82.5621633,2.01540148 82.5621633,2.98836113 C82.5621633,3.96132079 82.232057,4.70261224 81.5718343,5.21225778 C80.9116116,5.72190332 79.979206,5.97672226 78.7745893,5.97672226 C77.546807,5.97672226 76.6086097,5.72190332 75.9599701,5.21225778 C75.3113304,4.70261224 74.9870153,3.96132079 74.9870153,2.98836113 C74.9870153,2.01540148 75.3113304,1.27411001 75.9599701,0.764464475 C76.6086097,0.254818943 77.546807,-6.00176313e-14 78.7745893,-6.00176313e-14 Z M82.1104342,23.9416374 C82.1104342,24.8914314 82.2552177,25.5458528 82.5447891,25.9049212 C82.8343604,26.2639895 83.3382069,26.4435211 84.0563438,26.4435211 L84.0563438,27.1732372 C81.5544475,27.0805744 79.909707,27.0342437 79.1220731,27.0342437 C78.3344392,27.0342437 76.5970373,27.0805744 73.9098153,27.1732372 L73.9098153,26.4435211 C74.6279522,26.4435211 75.1317988,26.2639895 75.4213701,25.9049212 C75.7109414,25.5458528 75.8557249,24.8914314 75.8557249,23.9416374 L75.8557249,12.9263993 C75.8557249,11.8607768 75.7109414,11.0847373 75.4213701,10.5982575 C75.1317988,10.1117777 74.6279522,9.8685414 73.9098153,9.8685414 L73.9098153,9.13882531 C74.6511178,9.20832242 75.3692441,9.24307046 76.0642152,9.24307046 C78.4734487,9.24307046 80.4888347,9.08091295 82.1104342,8.75659307 L82.1104342,23.9416374 Z" id="cristi" fill="#242424"></path>
                <path d="M100.367037,0.241308231 C102.018784,0.241308231 103.395219,0.665709165 104.496384,1.51452334 C104.863439,1.78981452 105.167402,2.17980463 105.408281,2.68450513 C105.649161,3.18920562 105.769599,3.75124985 105.769599,4.370655 C105.769599,5.10476481 105.500047,5.75283639 104.960935,6.31488921 C104.421824,6.87694175 103.739341,7.15796415 102.913468,7.15796415 C101.949949,7.15796415 101.192909,6.90561763 100.642327,6.40091713 C100.091745,5.89621664 99.8164576,5.19652882 99.8164576,4.30183249 C99.8164576,3.61360455 100.017188,2.99420885 100.418654,2.44362649 C100.82012,1.89304413 101.41084,1.49158384 102.190832,1.2392336 C102.030245,1.03276521 101.720548,0.92953274 101.261729,0.92953274 C100.55056,0.92953274 100.011456,1.14746815 99.6444015,1.58334585 C99.4149922,1.85863703 99.2486729,2.23142173 99.1454387,2.70171082 C99.0422046,3.17199963 98.9905883,3.84301186 98.9905883,4.71476726 L98.9905883,9.32587102 L102.672589,9.32587102 L102.672589,10.0140955 L98.9905883,10.0140955 L98.9905883,23.6065287 C98.9905883,24.6618116 99.2371995,25.3959102 99.7304295,25.808847 C100.22366,26.2217838 100.963493,26.428249 101.949953,26.428249 L101.949953,27.1508846 L100.952028,27.1164735 C98.1991164,27.0476507 96.4212209,27.0132399 95.6182884,27.0132399 C94.9300605,27.0132399 93.34716,27.0591209 90.8695396,27.1508846 L90.8695396,26.428249 C91.5807084,26.428249 92.0796662,26.2504594 92.3664278,25.8948749 C92.6531894,25.5392908 92.7965681,24.8912192 92.7965681,23.950641 L92.7965681,10.0140955 L90.7318947,10.0140955 L90.7318947,9.32587102 L92.7965681,9.32587102 C92.7965681,7.33001026 92.9743576,5.79872599 93.3299421,4.73197296 C93.6855265,3.66521964 94.3221277,2.74186089 95.2397649,1.96186951 C95.8132882,1.48010994 96.5588572,1.07291442 97.4764944,0.740270914 C98.3941316,0.407627407 99.3576363,0.241308231 100.367037,0.241308231 Z M107.937506,27.3917633 C106.469287,27.3917633 105.362403,26.9960382 104.616823,26.2045761 C103.871243,25.4131139 103.498458,24.4209335 103.498458,23.2280054 C103.498458,22.1956635 103.76801,21.3411266 104.307122,20.6643692 C104.846234,19.9876117 105.482835,19.4657135 106.216945,19.0986586 C106.951055,18.7316037 107.903089,18.353084 109.073077,17.9630882 C110.311887,17.5501514 111.21804,17.1716318 111.791563,16.8275178 C112.365086,16.4834039 112.651844,16.0016515 112.651844,15.3822463 L112.651844,12.3196474 C112.651844,11.5855379 112.468319,10.9317311 112.101264,10.3582078 C111.734209,9.78468449 111.103343,9.49792714 110.208647,9.49792714 C109.497478,9.49792714 108.855142,9.6929222 108.281618,10.082918 C109.06161,10.3582092 109.64086,10.7654047 110.019385,11.3045163 C110.397911,11.8436282 110.58717,12.4458188 110.58717,13.1111055 C110.58717,14.0058019 110.271737,14.7226954 109.640862,15.261807 C109.009986,15.8009189 108.247212,16.0704708 107.352515,16.0704708 C106.457819,16.0704708 105.752396,15.7894487 105.236225,15.2273959 C104.720054,14.665343 104.461973,13.9484498 104.461973,13.0766944 C104.461973,12.3884665 104.634027,11.7920114 104.978141,11.2873109 C105.322255,10.7826104 105.861359,10.3237987 106.595469,9.91086191 C107.880161,9.1767521 109.715408,8.80970292 112.101264,8.80970292 C113.363015,8.80970292 114.452693,8.93014081 115.37033,9.17102059 C116.287968,9.41190037 117.067948,9.86497689 117.710294,10.5302639 C118.169112,11.0120235 118.473075,11.6142138 118.622191,12.3368531 C118.771307,13.0594924 118.845864,14.063143 118.845864,15.3478352 L118.845864,24.570043 C118.845864,25.1435663 118.88601,25.5335561 118.966303,25.7400245 C119.046597,25.9464929 119.189975,26.0497256 119.396443,26.0497256 C119.55703,26.0497256 119.729084,25.9981091 119.912612,25.8948749 C120.096139,25.7916407 120.268194,25.6712028 120.42878,25.5335572 L120.772892,26.1185479 C119.786432,26.9673623 118.375586,27.3917633 116.540312,27.3917633 C115.163856,27.3917633 114.200352,27.1566221 113.649769,26.686333 C113.099187,26.2160442 112.800959,25.5794428 112.755077,24.7765102 C111.676854,26.520021 110.071013,27.3917633 107.937506,27.3917633 Z M111.378629,24.6388655 C111.860388,24.6388655 112.284789,24.4438704 112.651844,24.0538746 L112.651844,16.7931064 C112.445375,17.1372204 112.066856,17.584562 111.516273,18.1351443 C110.896868,18.7316086 110.426586,19.3108582 110.105413,19.872911 C109.78424,20.4349638 109.623656,21.1977384 109.623656,22.1612572 C109.623656,23.8130043 110.208641,24.6388655 111.378629,24.6388655 Z M134.296503,8.80970292 C135.420609,8.80970292 136.229264,9.15381145 136.722494,9.8420394 C137.215724,10.5302673 137.462336,11.3446581 137.462336,12.2852363 C137.462336,13.3175782 137.169843,14.1377042 136.584849,14.7456389 C135.999856,15.3535733 135.237081,15.657536 134.296503,15.657536 C133.310043,15.657536 132.553004,15.4338654 132.025362,14.9865172 C131.497721,14.5391691 131.233904,13.9369788 131.233904,13.179928 C131.233904,11.8264134 131.818889,10.7596761 132.988877,9.97968441 C132.57594,9.97968441 132.20889,10.0599765 131.887717,10.220563 C131.314194,10.4729133 130.832442,10.8801085 130.442446,11.4421614 C130.05245,12.0042142 129.857455,12.6178749 129.857455,13.2831617 L129.857455,23.6065287 C129.857455,24.6847525 130.081126,25.4245864 130.528474,25.8260527 C130.975822,26.227519 131.738597,26.428249 132.816821,26.428249 L132.816821,27.1508846 C132.518588,27.1508846 132.266242,27.1394144 132.059774,27.1164735 C129.650976,27.0476507 128.045135,27.0132399 127.242202,27.0132399 C126.531034,27.0132399 124.936663,27.0476507 122.459042,27.1164735 C122.275515,27.1394144 122.034639,27.1508846 121.736407,27.1508846 L121.736407,26.428249 C122.447576,26.428249 122.946533,26.2504594 123.233295,25.8948749 C123.520056,25.5392908 123.663435,24.8912192 123.663435,23.950641 L123.663435,13.0422833 C123.663435,11.9870005 123.520056,11.2184907 123.233295,10.7367311 C122.946533,10.2549719 122.447576,10.0140955 121.736407,10.0140955 L121.736407,9.2914599 C122.470517,9.3602827 123.181675,9.39469352 123.869903,9.39469352 C126.255759,9.39469352 128.25159,9.23410958 129.857455,8.91293654 L129.857455,11.3905445 C130.729211,9.66997468 132.208878,8.80970292 134.296503,8.80970292 Z M147.44159,8.80970292 C148.382168,8.80970292 149.248176,8.90720016 150.039638,9.10219808 C150.8311,9.297196 151.479171,9.54380729 151.983872,9.8420394 C152.626218,10.2090943 153.130911,10.7023169 153.497966,11.321722 C153.86502,11.9411272 154.048545,12.640815 154.048545,13.4208067 C154.048545,14.3843258 153.738847,15.1815111 153.119442,15.8123868 C152.500037,16.4432624 151.708587,16.7586953 150.745068,16.7586953 C149.758608,16.7586953 148.984363,16.4776732 148.42231,15.9156204 C147.860257,15.3535676 147.579235,14.6022635 147.579235,13.6616853 C147.579235,12.8358118 147.848787,12.1074481 148.387899,11.4765725 C148.927011,10.8456968 149.598023,10.4270314 150.400956,10.220563 C150.056842,9.94527187 149.59803,9.80762829 149.024507,9.80762829 C147.556287,9.80762829 146.523961,10.5933435 145.927496,12.164797 C145.331032,13.7362508 145.032805,15.6001734 145.032805,17.7566207 C145.032805,19.9589501 145.445735,21.5303802 146.271609,22.4709584 C147.097482,23.4115365 148.118338,23.8818185 149.334208,23.8818185 C151.008896,23.8818185 152.396801,23.1133087 153.497966,21.5762666 L154.082956,21.7827338 C153.578256,23.388599 152.723719,24.765034 151.51932,25.9120806 C150.314922,27.0591272 148.772167,27.6326419 146.891011,27.6326419 C144.39045,27.6326419 142.383148,26.8870728 140.869047,25.3959122 C139.354945,23.904752 138.597906,21.5189309 138.597906,18.238378 C138.597906,15.0954703 139.406562,12.7383251 141.023897,11.1668716 C142.641233,9.5954178 144.780442,8.80970292 147.44159,8.80970292 Z M160.070509,27.3917633 C158.60229,27.3917633 157.495407,26.9960382 156.749826,26.2045761 C156.004246,25.4131139 155.631462,24.4209335 155.631462,23.2280054 C155.631462,22.1956635 155.901013,21.3411266 156.440125,20.6643692 C156.979237,19.9876117 157.615838,19.4657135 158.349948,19.0986586 C159.084058,18.7316037 160.036092,18.353084 161.20608,17.9630882 C162.44489,17.5501514 163.351043,17.1716318 163.924566,16.8275178 C164.49809,16.4834039 164.784847,16.0016515 164.784847,15.3822463 L164.784847,12.3196474 C164.784847,11.5855379 164.601322,10.9317311 164.234267,10.3582078 C163.867212,9.78468449 163.236346,9.49792714 162.34165,9.49792714 C161.630481,9.49792714 160.988145,9.6929222 160.414621,10.082918 C161.194613,10.3582092 161.773863,10.7654047 162.152388,11.3045163 C162.530914,11.8436282 162.720173,12.4458188 162.720173,13.1111055 C162.720173,14.0058019 162.40474,14.7226954 161.773865,15.261807 C161.142989,15.8009189 160.380215,16.0704708 159.485518,16.0704708 C158.590822,16.0704708 157.885399,15.7894487 157.369228,15.2273959 C156.853057,14.665343 156.594976,13.9484498 156.594976,13.0766944 C156.594976,12.3884665 156.76703,11.7920114 157.111144,11.2873109 C157.455258,10.7826104 157.994362,10.3237987 158.728472,9.91086191 C160.013164,9.1767521 161.84841,8.80970292 164.234267,8.80970292 C165.496018,8.80970292 166.585696,8.93014081 167.503334,9.17102059 C168.42097,9.41190037 169.20095,9.86497689 169.843296,10.5302639 C170.302115,11.0120235 170.606078,11.6142138 170.755194,12.3368531 C170.90431,13.0594924 170.978867,14.063143 170.978867,15.3478352 L170.978867,24.570043 C170.978867,25.1435663 171.019013,25.5335561 171.099306,25.7400245 C171.179599,25.9464929 171.322978,26.0497256 171.529447,26.0497256 C171.690033,26.0497256 171.862087,25.9981091 172.045615,25.8948749 C172.229142,25.7916407 172.401197,25.6712028 172.561783,25.5335572 L172.905895,26.1185479 C171.919435,26.9673623 170.50859,27.3917633 168.673315,27.3917633 C167.296859,27.3917633 166.333355,27.1566221 165.782772,26.686333 C165.23219,26.2160442 164.933962,25.5794428 164.88808,24.7765102 C163.809857,26.520021 162.204016,27.3917633 160.070509,27.3917633 Z M163.511631,24.6388655 C163.993391,24.6388655 164.417792,24.4438704 164.784847,24.0538746 L164.784847,16.7931064 C164.578378,17.1372204 164.199859,17.584562 163.649276,18.1351443 C163.029871,18.7316086 162.559589,19.3108582 162.238416,19.872911 C161.917243,20.4349638 161.756659,21.1977384 161.756659,22.1612572 C161.756659,23.8130043 162.341644,24.6388655 163.511631,24.6388655 Z M181.095766,8.80970292 C181.990463,8.80970292 182.833529,8.90720016 183.624992,9.10219808 C184.416453,9.297196 185.018644,9.50939646 185.431581,9.73880578 C185.683931,9.87645137 185.890396,9.94527302 186.050983,9.94527302 C186.532742,9.94527302 186.8195,9.57822384 186.911263,8.84411403 L187.599488,8.84411403 C187.507724,10.0370425 187.461843,12.1016951 187.461843,15.038134 L186.773618,15.038134 C186.590091,13.5240329 186.159955,12.2450951 185.483198,11.2012827 C184.80644,10.1574703 183.82573,9.63557216 182.541038,9.63557216 C181.967515,9.63557216 181.485762,9.80762657 181.095766,10.1517405 C180.705771,10.4958545 180.510776,10.9661365 180.510776,11.5626007 C180.510776,12.3196514 180.763122,12.9906634 181.267823,13.5756571 C181.772523,14.1606509 182.563973,14.8775441 183.642197,15.7263586 C183.688079,15.7492995 184.020717,16.0131162 184.640123,16.5178167 C185.924814,17.5730995 186.865379,18.5079285 187.461843,19.3223315 C188.058307,20.1367343 188.356535,21.1403852 188.356535,22.3333133 C188.356535,23.3427143 188.046837,24.2546026 187.427431,25.0690057 C186.808027,25.8834087 185.96496,26.5142749 184.898207,26.9616231 C183.831453,27.408971 182.667219,27.6326419 181.405468,27.6326419 C179.960189,27.6326419 178.778749,27.3458845 177.861112,26.7723612 C177.471116,26.5658929 177.149948,26.4167791 176.897597,26.3250154 C176.645247,26.2332516 176.392901,26.1873704 176.14055,26.1873704 C175.704673,26.1873704 175.383505,26.5888306 175.177036,27.3917633 L174.488812,27.3917633 C174.580575,26.0841302 174.626457,23.7900716 174.626457,20.5095187 L175.314681,20.5095187 C175.52115,22.3906748 176.025842,23.9047537 176.828775,25.0518 C177.631708,26.1988466 178.641093,26.7723612 179.856962,26.7723612 C180.430486,26.7723612 180.906503,26.611777 181.285028,26.290604 C181.663554,25.9694312 181.852813,25.499149 181.852813,24.8797438 C181.852813,24.2373981 181.720905,23.6638834 181.457084,23.1591829 C181.193264,22.6544824 180.872095,22.2014058 180.49357,21.7999395 C180.115045,21.3984732 179.501384,20.8192233 178.65257,20.0621729 C177.689051,19.1674765 176.954952,18.4563182 176.450252,17.9286768 C175.945551,17.4010354 175.515415,16.7873749 175.15983,16.0876765 C174.804246,15.3879781 174.626457,14.6137334 174.626457,13.7649189 C174.626457,12.7784589 174.924684,11.9067166 175.521148,11.1496659 C176.117613,10.3926152 176.909063,9.81336552 177.895523,9.41189922 C178.881983,9.01043292 179.94872,8.80970292 181.095766,8.80970292 Z" id="farcas" fill="#6C6C6C" transform="translate(139.544215, 13.936975) scale(-1, -1) rotate(180.000000) translate(-139.544215, -13.936975) "></path>
            </g>
        </g>
    </g>
</svg>